<svg xmlns="http://www.w3.org/2000/svg" version="1.1" xmlns:xlink="http://www.w3.org/1999/xlink" xmlns:svgjs="http://svgjs.dev/svgjs" width="2000" height="2610" viewBox="0 0 2000 2610"><g transform="matrix(1,0,0,1,-3.765413533834476,-4.209677419354875)"><svg viewBox="0 0 190 248" data-background-color="#e9e2da" preserveAspectRatio="xMidYMid meet" height="2610" width="2000" xmlns="http://www.w3.org/2000/svg" xmlns:xlink="http://www.w3.org/1999/xlink"><g id="tight-bounds" transform="matrix(1,0,0,1,0.3577142857142803,0.4000000000000057)"><svg viewBox="0 0 189.2845714285714 247.2" height="247.2" width="189.2845714285714"><g><svg viewBox="0 0 189.2845714285714 247.2" height="247.2" width="189.2845714285714"><g><svg viewBox="0 0 189.2845714285714 247.2" height="247.2" width="189.2845714285714"><g id="textblocktransform"><svg viewBox="0 0 189.2845714285714 247.2" height="247.2" width="189.2845714285714" id="textblock"><g><svg viewBox="0 0 189.2845714285714 247.2" height="247.2" width="189.2845714285714"><g transform="matrix(1,0,0,1,0,0)"><svg width="189.2845714285714" viewBox="2.5 -35 26.8 35" height="247.2" data-palette-color="#1b2141"><path d="M2.5-2.3L2.5-2.3 2.5-32.3Q2.5-33.55 3.13-34.27 3.75-35 4.75-35L4.75-35 13.1-35Q21.05-35 25.18-31 29.3-27 29.3-18.4L29.3-18.4Q29.3 0 13.6 0L13.6 0 5.05 0Q2.5 0 2.5-2.3ZM12.6-25.5L12.1-25.5 12.1-10.55Q12.1-9.5 12.25-9.22 12.4-8.95 13.15-8.95L13.15-8.95Q15.9-8.95 17.32-11 18.75-13.05 18.75-17.82 18.75-22.6 17.28-24.05 15.8-25.5 12.6-25.5L12.6-25.5Z" opacity="1" transform="matrix(1,0,0,1,0,0)" fill="#1b2141" class="wordmark-text-0" data-fill-palette-color="primary" id="text-0"></path></svg></g></svg></g></svg></g></svg></g><g></g></svg></g><defs></defs></svg><rect width="189.2845714285714" height="247.2" fill="none" stroke="none" visibility="hidden"></rect></g></svg></g></svg>